<svg width="90" height="62" viewBox="0 0 90 62" fill="none" xmlns="http://www.w3.org/2000/svg">
<g id="Visa">
<path id="polygon9" d="M39.915 42.5214H33.9297L37.6733 20.8203H43.6583L39.915 42.5214Z" fill="#FF7171"/>
<path id="path11" d="M61.6125 21.3509C60.4319 20.9118 58.5594 20.427 56.2441 20.427C50.3334 20.427 46.1712 23.3819 46.1457 27.6065C46.0966 30.7234 49.1257 32.4546 51.3913 33.4939C53.7069 34.5559 54.4941 35.249 54.4941 36.1956C54.4705 37.6494 52.6229 38.3196 50.8997 38.3196C48.5101 38.3196 47.2297 37.9741 45.2839 37.1652L44.4958 36.8185L43.6582 41.6899C45.062 42.2895 47.6483 42.8216 50.3334 42.8449C56.6136 42.8449 60.7023 39.9357 60.7507 35.4337C60.7746 32.9633 59.1751 31.0704 55.7267 29.5236C53.6333 28.5307 52.3512 27.8612 52.3512 26.8452C52.3758 25.9216 53.4356 24.9756 55.7987 24.9756C57.7445 24.9293 59.1741 25.3678 60.2571 25.8066L60.7985 26.037L61.6125 21.3509V21.3509V21.3509Z" fill="white"/>
<path id="path13" fill-rule="evenodd" clip-rule="evenodd" d="M72.3258 20.8203H76.9555L81.7841 42.5211H76.2423C76.2423 42.5211 75.7 40.0277 75.5281 39.2658H67.8435C67.6213 39.8427 66.5873 42.5211 66.5873 42.5211H60.3071L69.1975 22.6209C69.8135 21.2125 70.8982 20.8203 72.3258 20.8203ZM71.957 28.7617C71.957 28.7617 70.0603 33.5868 69.5674 34.8335H74.5423C74.2962 33.7485 73.1627 28.554 73.1627 28.554L72.7445 26.6841C72.5683 27.1656 72.3136 27.8276 72.1418 28.2741C72.0253 28.5768 71.9469 28.7804 71.957 28.7617Z" fill="#FF7171"/>
<path id="Combined Shape" fill-rule="evenodd" clip-rule="evenodd" d="M7.99647 20.8203H17.6262C18.9315 20.866 19.9906 21.2585 20.3353 22.6445L22.4281 32.6153C22.4283 32.6159 22.4285 32.6165 22.4287 32.6172L23.0692 35.6184L28.9308 20.8203H35.2598L25.8519 42.4984H19.5226L14.1879 23.6421C12.3473 22.6332 10.2466 21.8219 7.89795 21.2588L7.99647 20.8203Z" fill="white"/>
</g>
</svg>
